<svg width="380" height="33" viewBox="0 0 380 33" fill="none" xmlns="http://www.w3.org/2000/svg">
<path fill-rule="evenodd" clip-rule="evenodd" d="M371.533 3.20304C371.492 2.94461 371.461 2.6891 371.441 2.43357C371.411 2.05027 371.43 1.66404 371.419 1.28074C371.414 1.11812 371.396 0.694176 371.403 0.633196C371.471 0.101802 371.876 0.0204863 371.995 0.00596731C372.052 -0.00274406 372.641 -0.0724039 372.768 0.618698C372.924 1.4637 372.974 2.3145 372.919 3.14789C373.048 3.85641 373.268 4.56202 373.558 5.20085C374.715 7.74167 376.919 7.9885 379.308 7.96527C379.675 7.95946 379.98 8.26435 379.999 8.65056C380.018 9.03967 379.745 9.3765 379.379 9.41135C378.044 9.54783 375.676 10.6803 374.857 11.8593C374.686 12.1061 374.586 12.7014 374.454 13.285C374.271 14.0952 374.052 14.8966 373.807 15.2335C373.77 15.2857 373.323 15.82 373.189 15.8984C372.869 16.0843 372.612 15.9768 372.466 15.8781C372.32 15.7794 372.156 15.5848 372.09 15.2625C372.021 14.9257 372.079 14.2345 372.068 14.0864C372.029 13.5492 371.928 12.4952 371.72 11.5892C371.609 11.1014 371.49 10.6513 371.292 10.4277C370.563 9.6001 369.396 9.72207 368.414 9.85854C368.301 9.87306 368.188 9.8905 368.076 9.90502C367.676 10.0299 367.251 10.1228 366.802 10.178C366.124 10.2622 366.013 9.603 366.007 9.55945C365.994 9.46362 365.947 8.96999 366.458 8.77253C366.514 8.7522 366.925 8.65637 367.084 8.61862C367.304 8.56635 367.527 8.52571 367.751 8.48796C370.065 7.72717 371.322 5.58996 371.533 3.20304ZM372.328 5.84262C373.201 7.75331 374.527 8.6767 376.098 9.09485H376.098C375.117 9.63786 374.224 10.3174 373.751 10.9998C373.572 11.2582 373.407 11.7779 373.258 12.3616C373.178 11.8186 373.069 11.2407 372.926 10.7471C372.762 10.1838 372.543 9.71627 372.297 9.43751C371.823 8.90031 371.229 8.60121 370.589 8.45312C371.355 7.73588 371.935 6.84152 372.328 5.84262Z" fill="#FFFCF2"/>
<path d="M3.12 27.632C2.848 27.632 2.616 27.48 2.424 27.176C2.232 26.888 2.136 26.552 2.136 26.168C2.136 26.008 2.168 25.864 2.232 25.736C2.312 25.608 2.432 25.512 2.592 25.448C2.768 25.368 2.944 25.296 3.12 25.232C3.312 25.152 3.504 25.072 3.696 24.992C3.648 24.864 3.608 24.712 3.576 24.536C3.544 24.36 3.528 24.152 3.528 23.912C3.528 23.736 3.56 23.4 3.624 22.904C3.704 22.392 3.808 21.784 3.936 21.08C4.064 20.376 4.2 19.632 4.344 18.848C4.504 18.048 4.656 17.272 4.8 16.52C4.96 15.752 5.104 15.064 5.232 14.456C5.52 13.144 5.872 11.968 6.288 10.928C6.72 9.888 7.296 9.072 8.016 8.48C8.752 7.872 9.72 7.568 10.92 7.568C11.832 7.568 12.728 7.768 13.608 8.168C14.504 8.568 15.312 9.136 16.032 9.872C16.768 10.592 17.352 11.44 17.784 12.416C18.216 13.392 18.432 14.456 18.432 15.608C18.432 16.6 18.2 17.544 17.736 18.44C17.272 19.32 16.648 20.152 15.864 20.936C15.08 21.72 14.184 22.448 13.176 23.12C12.184 23.792 11.144 24.408 10.056 24.968C8.984 25.512 7.928 25.992 6.888 26.408C5.848 26.84 4.888 27.2 4.008 27.488C3.896 27.52 3.76 27.552 3.6 27.584C3.44 27.616 3.28 27.632 3.12 27.632ZM5.4 24.32C6.792 23.744 8.144 23.152 9.456 22.544C10.784 21.936 11.976 21.264 13.032 20.528C14.088 19.776 14.928 18.936 15.552 18.008C16.176 17.08 16.488 16.016 16.488 14.816C16.488 14.192 16.344 13.584 16.056 12.992C15.768 12.4 15.368 11.872 14.856 11.408C14.36 10.928 13.792 10.552 13.152 10.28C12.528 9.992 11.872 9.848 11.184 9.848C10.56 9.848 10 10.008 9.504 10.328C9.024 10.632 8.608 11.176 8.256 11.96C7.904 12.744 7.6 13.832 7.344 15.224C7.152 16.088 6.952 17.024 6.744 18.032C6.536 19.024 6.328 19.976 6.12 20.888C5.928 21.784 5.768 22.544 5.64 23.168C5.512 23.776 5.44 24.128 5.424 24.224C5.424 24.256 5.416 24.288 5.4 24.32ZM30.5149 15.656C30.5149 16.168 30.3549 16.672 30.0349 17.168C29.7149 17.648 29.2909 18.112 28.7629 18.56C28.2349 18.992 27.6509 19.4 27.0109 19.784C26.3709 20.168 25.7309 20.504 25.0909 20.792C24.4509 21.08 23.8669 21.312 23.3389 21.488C23.2109 22.112 23.1469 22.664 23.1469 23.144C23.1469 23.448 23.2189 23.664 23.3629 23.792C23.5069 23.92 23.7309 23.984 24.0349 23.984C24.7069 23.984 25.4189 23.864 26.1709 23.624C26.9229 23.384 27.6909 23.072 28.4749 22.688C29.2589 22.304 30.0109 21.896 30.7309 21.464C31.4509 21.032 32.1069 20.624 32.6989 20.24C33.3069 19.856 33.8109 19.544 34.2109 19.304C34.6109 19.064 34.8749 18.944 35.0029 18.944C35.1949 18.944 35.3389 19.008 35.4349 19.136C35.5469 19.248 35.6029 19.384 35.6029 19.544C35.6029 19.672 35.4029 19.92 35.0029 20.288C34.6189 20.656 34.0989 21.088 33.4429 21.584C32.7869 22.064 32.0509 22.56 31.2349 23.072C30.4189 23.584 29.5709 24.064 28.6909 24.512C27.8269 24.96 26.9869 25.32 26.1709 25.592C25.3709 25.864 24.6509 26 24.0109 26C23.1789 26 22.5309 25.688 22.0669 25.064C21.6029 24.44 21.3709 23.472 21.3709 22.16C21.3709 21.28 21.4829 20.392 21.7069 19.496C21.9469 18.6 22.2669 17.744 22.6669 16.928C23.0829 16.096 23.5389 15.36 24.0349 14.72C24.5469 14.064 25.0829 13.552 25.6429 13.184C26.2029 12.8 26.7469 12.608 27.2749 12.608C28.2829 12.608 29.0749 12.888 29.6509 13.448C30.2269 14.008 30.5149 14.744 30.5149 15.656ZM23.8429 19.64C24.3389 19.336 24.8509 19.016 25.3789 18.68C25.9069 18.344 26.3949 18 26.8429 17.648C27.2909 17.296 27.6509 16.928 27.9229 16.544C28.2109 16.144 28.3549 15.736 28.3549 15.32C28.3549 14.728 28.0349 14.432 27.3949 14.432C26.9949 14.432 26.5709 14.688 26.1229 15.2C25.6909 15.696 25.2749 16.344 24.8749 17.144C24.4749 17.944 24.1309 18.776 23.8429 19.64ZM36.2524 26.528C35.9004 26.528 35.6284 26.424 35.4364 26.216C35.2604 26.024 35.1724 25.8 35.1724 25.544C35.1724 25.32 35.2684 25.112 35.4604 24.92C35.6684 24.712 35.9484 24.528 36.3004 24.368C36.9404 24.032 37.5404 23.696 38.1004 23.36C38.6764 23.024 39.1404 22.664 39.4924 22.28C39.8444 21.896 40.0204 21.488 40.0204 21.056C40.0204 20.688 39.9004 20.408 39.6604 20.216C39.4204 20.008 39.0924 19.904 38.6764 19.904C38.4364 19.904 38.1004 19.952 37.6684 20.048C37.2364 20.128 36.7644 20.224 36.2524 20.336C35.7564 20.432 35.2684 20.528 34.7884 20.624C34.3084 20.704 33.9004 20.744 33.5644 20.744C32.9564 20.744 32.5004 20.6 32.1964 20.312C31.8924 20.008 31.7404 19.6 31.7404 19.088C31.7404 18.832 31.8924 18.448 32.1964 17.936C32.5004 17.424 32.9004 16.856 33.3964 16.232C33.9084 15.592 34.4684 14.952 35.0764 14.312C35.6844 13.672 36.3004 13.08 36.9244 12.536C37.5644 11.992 38.1564 11.552 38.7004 11.216C39.2604 10.88 39.7244 10.712 40.0924 10.712C40.4604 10.712 40.7404 10.832 40.9324 11.072C41.1244 11.312 41.2204 11.616 41.2204 11.984C41.2204 12.272 41.1724 12.52 41.0764 12.728C40.9804 12.92 40.7804 13.072 40.4764 13.184C40.1884 13.296 39.7404 13.36 39.1324 13.376C38.5084 13.872 37.8444 14.44 37.1404 15.08C36.4524 15.704 35.8204 16.352 35.2444 17.024C34.6844 17.68 34.2764 18.312 34.0204 18.92C34.5484 18.744 35.1884 18.592 35.9404 18.464C36.7084 18.32 37.4844 18.248 38.2684 18.248C39.5004 18.248 40.4124 18.528 41.0044 19.088C41.6124 19.632 41.9164 20.352 41.9164 21.248C41.9164 21.824 41.7324 22.424 41.3644 23.048C41.0124 23.656 40.5484 24.224 39.9724 24.752C39.3964 25.28 38.7804 25.704 38.1244 26.024C37.4684 26.36 36.8444 26.528 36.2524 26.528ZM44.6835 26.12C44.3795 26.12 44.1075 26.008 43.8675 25.784C43.6275 25.544 43.5075 25.176 43.5075 24.68C43.5075 24.328 43.5555 23.84 43.6515 23.216C43.7475 22.576 43.8755 21.88 44.0355 21.128C44.1955 20.376 44.3635 19.632 44.5395 18.896C44.7315 18.144 44.9235 17.472 45.1155 16.88C45.3075 16.288 45.4755 15.848 45.6195 15.56C45.7475 15.336 45.8675 15.192 45.9795 15.128C46.1075 15.064 46.2275 15.032 46.3395 15.032C46.5635 15.032 46.7555 15.104 46.9155 15.248C47.0915 15.392 47.1795 15.672 47.1795 16.088C47.1795 16.328 47.1315 16.728 47.0355 17.288C46.9555 17.832 46.8435 18.472 46.6995 19.208C46.5715 19.928 46.4275 20.672 46.2675 21.44C46.1235 22.192 45.9795 22.912 45.8355 23.6C45.6915 24.288 45.5795 24.864 45.4995 25.328C45.4355 25.584 45.3235 25.784 45.1635 25.928C45.0195 26.056 44.8595 26.12 44.6835 26.12ZM47.0355 12.848C46.6675 12.848 46.3155 12.736 45.9795 12.512C45.6595 12.288 45.4995 11.928 45.4995 11.432C45.4995 11.016 45.5955 10.68 45.7875 10.424C45.9955 10.168 46.2355 9.984 46.5075 9.872C46.7955 9.744 47.0435 9.68 47.2515 9.68C47.4595 9.68 47.6915 9.728 47.9475 9.824C48.2195 9.904 48.4515 10.064 48.6435 10.304C48.8355 10.528 48.9315 10.864 48.9315 11.312C48.9315 11.616 48.8275 11.888 48.6195 12.128C48.4115 12.352 48.1555 12.528 47.8515 12.656C47.5635 12.784 47.2915 12.848 47.0355 12.848ZM50.7834 32.336C49.5514 32.336 48.6474 32.216 48.0714 31.976C47.4954 31.736 47.2074 31.416 47.2074 31.016C47.2074 30.76 47.2874 30.552 47.4474 30.392C47.6234 30.232 47.8394 30.152 48.0954 30.152C48.3674 30.152 48.7594 30.192 49.2714 30.272C49.7834 30.368 50.2874 30.416 50.7834 30.416C52.4314 30.416 53.7834 29.928 54.8394 28.952C55.8954 27.976 56.7034 26.48 57.2634 24.464C57.8234 22.432 58.1994 19.84 58.3914 16.688C57.9114 17.664 57.3674 18.64 56.7594 19.616C56.1674 20.576 55.5274 21.456 54.8394 22.256C54.1674 23.04 53.4714 23.672 52.7514 24.152C52.0314 24.632 51.3194 24.872 50.6154 24.872C49.9434 24.872 49.4474 24.704 49.1274 24.368C48.8234 24.032 48.6714 23.48 48.6714 22.712C48.6714 22.024 48.8634 21.296 49.2474 20.528C49.6314 19.744 50.1434 18.96 50.7834 18.176C51.4234 17.392 52.1274 16.648 52.8954 15.944C53.6634 15.224 54.4314 14.592 55.1994 14.048C55.9834 13.488 56.7114 13.048 57.3834 12.728C58.0554 12.408 58.5994 12.248 59.0154 12.248C59.4314 12.248 59.7514 12.392 59.9754 12.68C60.1994 12.968 60.3114 13.512 60.3114 14.312C60.3114 16.184 60.2474 18.008 60.1194 19.784C60.0074 21.544 59.7754 23.184 59.4234 24.704C59.0714 26.224 58.5434 27.552 57.8394 28.688C57.1514 29.84 56.2314 30.736 55.0794 31.376C53.9274 32.016 52.4954 32.336 50.7834 32.336ZM57.9594 14.336C57.1594 14.848 56.3354 15.424 55.4874 16.064C54.6394 16.704 53.8474 17.384 53.1114 18.104C52.3914 18.824 51.8074 19.568 51.3594 20.336C50.9114 21.104 50.6874 21.872 50.6874 22.64C50.6874 22.88 50.8394 23 51.1434 23C51.3834 23 51.7114 22.816 52.1274 22.448C52.5594 22.064 53.0394 21.56 53.5674 20.936C54.0954 20.296 54.6314 19.6 55.1754 18.848C55.7354 18.08 56.2554 17.304 56.7354 16.52C57.2154 15.736 57.6234 15.008 57.9594 14.336ZM65.526 25.448C65.062 25.448 64.646 25.184 64.278 24.656C63.91 24.128 63.726 23.448 63.726 22.616C63.726 21.704 63.846 20.728 64.086 19.688C64.342 18.648 64.654 17.592 65.022 16.52C65.39 15.432 65.75 14.384 66.102 13.376C66.182 13.168 66.294 13.016 66.438 12.92C66.598 12.808 66.838 12.752 67.158 12.752C67.734 12.752 68.022 13.032 68.022 13.592C68.022 13.72 67.958 14.008 67.83 14.456C67.702 14.904 67.534 15.456 67.326 16.112C67.134 16.768 66.934 17.48 66.726 18.248C66.518 19 66.334 19.76 66.174 20.528C66.014 21.296 65.902 22.008 65.838 22.664C66.094 22.392 66.382 21.976 66.702 21.416C67.038 20.856 67.398 20.224 67.782 19.52C68.166 18.8 68.566 18.08 68.982 17.36C69.398 16.624 69.814 15.952 70.23 15.344C70.662 14.72 71.078 14.224 71.478 13.856C71.894 13.472 72.278 13.28 72.63 13.28C73.142 13.28 73.574 13.44 73.926 13.76C74.294 14.064 74.574 14.608 74.766 15.392C74.974 16.16 75.078 17.248 75.078 18.656C75.078 19.408 75.15 20.112 75.294 20.768C75.454 21.424 75.702 21.952 76.038 22.352C76.39 22.736 76.838 22.928 77.382 22.928C78.198 22.928 78.926 22.784 79.566 22.496C80.206 22.192 80.758 21.856 81.222 21.488C81.702 21.104 82.102 20.768 82.422 20.48C82.742 20.176 82.99 20.024 83.166 20.024C83.534 20.024 83.718 20.216 83.718 20.6C83.718 20.76 83.598 21.016 83.358 21.368C83.134 21.704 82.814 22.088 82.398 22.52C81.998 22.936 81.534 23.344 81.006 23.744C80.494 24.128 79.942 24.448 79.35 24.704C78.774 24.96 78.19 25.088 77.598 25.088C76.494 25.088 75.59 24.872 74.886 24.44C74.198 24.008 73.686 23.296 73.35 22.304C73.03 21.312 72.87 19.984 72.87 18.32C72.87 17.408 72.814 16.744 72.702 16.328C72.606 15.896 72.422 15.608 72.15 15.464C71.958 15.8 71.71 16.28 71.406 16.904C71.102 17.512 70.75 18.192 70.35 18.944C69.966 19.696 69.558 20.456 69.126 21.224C68.71 21.976 68.286 22.672 67.854 23.312C67.422 23.952 67.006 24.472 66.606 24.872C66.206 25.256 65.846 25.448 65.526 25.448ZM91.0586 15.656C91.0586 16.168 90.8986 16.672 90.5786 17.168C90.2586 17.648 89.8346 18.112 89.3066 18.56C88.7786 18.992 88.1946 19.4 87.5546 19.784C86.9146 20.168 86.2746 20.504 85.6346 20.792C84.9946 21.08 84.4106 21.312 83.8826 21.488C83.7546 22.112 83.6906 22.664 83.6906 23.144C83.6906 23.448 83.7626 23.664 83.9066 23.792C84.0506 23.92 84.2746 23.984 84.5786 23.984C85.2506 23.984 85.9626 23.864 86.7146 23.624C87.4666 23.384 88.2346 23.072 89.0186 22.688C89.8026 22.304 90.5546 21.896 91.2746 21.464C91.9946 21.032 92.6506 20.624 93.2426 20.24C93.8506 19.856 94.3546 19.544 94.7546 19.304C95.1546 19.064 95.4186 18.944 95.5466 18.944C95.7386 18.944 95.8826 19.008 95.9786 19.136C96.0906 19.248 96.1466 19.384 96.1466 19.544C96.1466 19.672 95.9466 19.92 95.5466 20.288C95.1626 20.656 94.6426 21.088 93.9866 21.584C93.3306 22.064 92.5946 22.56 91.7786 23.072C90.9626 23.584 90.1146 24.064 89.2346 24.512C88.3706 24.96 87.5306 25.32 86.7146 25.592C85.9146 25.864 85.1946 26 84.5546 26C83.7226 26 83.0746 25.688 82.6106 25.064C82.1466 24.44 81.9146 23.472 81.9146 22.16C81.9146 21.28 82.0266 20.392 82.2506 19.496C82.4906 18.6 82.8106 17.744 83.2106 16.928C83.6266 16.096 84.0826 15.36 84.5786 14.72C85.0906 14.064 85.6266 13.552 86.1866 13.184C86.7466 12.8 87.2906 12.608 87.8186 12.608C88.8266 12.608 89.6186 12.888 90.1946 13.448C90.7706 14.008 91.0586 14.744 91.0586 15.656ZM84.3866 19.64C84.8826 19.336 85.3946 19.016 85.9226 18.68C86.4506 18.344 86.9386 18 87.3866 17.648C87.8346 17.296 88.1946 16.928 88.4666 16.544C88.7546 16.144 88.8986 15.736 88.8986 15.32C88.8986 14.728 88.5786 14.432 87.9386 14.432C87.5386 14.432 87.1146 14.688 86.6666 15.2C86.2346 15.696 85.8186 16.344 85.4186 17.144C85.0186 17.944 84.6746 18.776 84.3866 19.64ZM103.277 13.928C103.709 12.888 104.117 11.816 104.501 10.712C104.901 9.608 105.261 8.48 105.581 7.328C105.677 7.008 105.821 6.752 106.013 6.56C106.221 6.352 106.461 6.248 106.733 6.248C106.925 6.248 107.085 6.32 107.213 6.464C107.357 6.608 107.429 6.8 107.429 7.04C107.429 7.344 107.309 7.872 107.069 8.624C106.845 9.376 106.557 10.328 106.205 11.48C105.869 12.632 105.525 13.96 105.173 15.464C104.837 16.952 104.549 18.6 104.309 20.408C104.085 22.216 103.973 24.144 103.973 26.192C103.973 26.64 103.877 27.008 103.685 27.296C103.493 27.6 103.261 27.752 102.989 27.752C102.829 27.752 102.677 27.712 102.533 27.632C102.389 27.552 102.261 27.36 102.149 27.056C102.053 26.768 101.973 26.312 101.909 25.688C101.845 25.048 101.813 24.184 101.813 23.096C101.813 22.264 101.861 21.36 101.957 20.384C101.221 21.712 100.421 22.872 99.5571 23.864C98.7091 24.84 97.8851 25.592 97.0851 26.12C96.3011 26.648 95.6291 26.912 95.0691 26.912C94.3811 26.912 93.8211 26.68 93.3891 26.216C92.9731 25.768 92.7651 25.096 92.7651 24.2C92.7651 23.416 92.9491 22.608 93.3171 21.776C93.6851 20.944 94.1731 20.128 94.7811 19.328C95.3891 18.512 96.0611 17.744 96.7971 17.024C97.5331 16.304 98.2691 15.672 99.0051 15.128C99.7571 14.568 100.453 14.136 101.093 13.832C101.733 13.512 102.253 13.352 102.653 13.352C102.813 13.352 102.957 13.408 103.085 13.52C103.213 13.632 103.277 13.768 103.277 13.928ZM102.965 14.672C102.853 14.784 102.717 14.896 102.557 15.008C102.397 15.12 102.221 15.24 102.029 15.368C101.325 15.864 100.549 16.44 99.7011 17.096C98.8691 17.736 98.0691 18.44 97.3011 19.208C96.5491 19.96 95.9331 20.752 95.4531 21.584C94.9731 22.416 94.7331 23.272 94.7331 24.152C94.7331 24.536 94.9251 24.728 95.3091 24.728C95.8371 24.728 96.4131 24.48 97.0371 23.984C97.6771 23.472 98.3331 22.768 99.0051 21.872C99.6771 20.96 100.349 19.896 101.021 18.68C101.693 17.448 102.341 16.112 102.965 14.672ZM124.799 28.616C124.543 28.616 124.311 28.48 124.103 28.208C123.911 27.936 123.815 27.592 123.815 27.176C123.815 26.936 123.847 26.528 123.911 25.952C123.815 25.952 123.719 25.952 123.623 25.952C122.711 25.952 121.847 25.76 121.031 25.376C120.215 24.976 119.551 24.448 119.039 23.792C118.527 23.136 118.271 22.424 118.271 21.656C118.271 21.064 118.511 20.52 118.991 20.024C119.487 19.512 120.127 19.056 120.911 18.656C121.711 18.24 122.575 17.88 123.503 17.576C122.863 17.256 122.319 16.872 121.871 16.424C121.423 15.96 121.199 15.44 121.199 14.864C121.199 14.24 121.463 13.6 121.991 12.944C122.519 12.288 123.207 11.664 124.055 11.072C124.903 10.464 125.807 9.928 126.767 9.464C126.959 8.536 127.151 7.648 127.343 6.8C127.535 5.936 127.719 5.144 127.895 4.424C127.975 4.12 128.095 3.872 128.255 3.68C128.431 3.472 128.623 3.368 128.831 3.368C129.055 3.368 129.231 3.464 129.359 3.656C129.503 3.848 129.575 4.224 129.575 4.784C129.575 4.896 129.519 5.296 129.407 5.984C129.295 6.656 129.143 7.52 128.951 8.576C129.511 8.384 130.055 8.24 130.583 8.144C131.111 8.032 131.583 7.976 131.999 7.976C132.591 7.976 133.095 8.104 133.511 8.36C133.943 8.616 134.159 8.928 134.159 9.296C134.159 9.52 134.063 9.704 133.871 9.848C133.695 9.976 133.399 10.08 132.983 10.16C132.215 10.288 131.447 10.44 130.679 10.616C129.911 10.792 129.175 10.984 128.471 11.192C128.311 12.024 128.151 12.896 127.991 13.808C127.831 14.72 127.663 15.656 127.487 16.616C128.575 16.424 129.479 16.328 130.199 16.328C130.759 16.328 131.167 16.368 131.423 16.448C131.695 16.528 131.871 16.632 131.951 16.76C132.031 16.888 132.071 17.024 132.071 17.168C132.071 17.552 131.687 17.896 130.919 18.2C130.167 18.488 128.991 18.632 127.391 18.632C127.311 18.632 127.215 18.632 127.103 18.632C126.959 19.448 126.815 20.264 126.671 21.08C126.527 21.896 126.383 22.696 126.239 23.48C127.423 23.304 128.495 23.064 129.455 22.76C130.431 22.456 131.287 22.144 132.023 21.824C132.759 21.504 133.359 21.24 133.823 21.032C134.287 20.808 134.599 20.696 134.759 20.696C134.919 20.696 135.031 20.752 135.095 20.864C135.175 20.976 135.215 21.072 135.215 21.152C135.215 21.392 135.007 21.736 134.591 22.184C134.175 22.632 133.567 23.112 132.767 23.624C131.967 24.12 130.983 24.576 129.815 24.992C128.663 25.392 127.335 25.672 125.831 25.832C125.751 26.376 125.671 26.88 125.591 27.344C125.527 27.792 125.415 28.112 125.255 28.304C125.095 28.512 124.943 28.616 124.799 28.616ZM124.223 23.672C124.447 22.216 124.719 20.536 125.039 18.632C124.287 18.92 123.535 19.232 122.783 19.568C122.047 19.888 121.431 20.272 120.935 20.72C120.455 21.152 120.215 21.68 120.215 22.304C120.215 22.704 120.479 23.04 121.007 23.312C121.535 23.568 122.303 23.696 123.311 23.696C123.615 23.696 123.919 23.688 124.223 23.672ZM125.327 17.072C125.471 16.24 125.623 15.4 125.783 14.552C125.943 13.688 126.103 12.832 126.263 11.984C125.335 12.368 124.583 12.8 124.007 13.28C123.431 13.744 123.143 14.232 123.143 14.744C123.143 15.16 123.343 15.576 123.743 15.992C124.143 16.408 124.663 16.768 125.303 17.072C125.303 17.072 125.311 17.072 125.327 17.072ZM159.518 11.288C159.518 11.512 159.246 11.8 158.702 12.152C158.174 12.488 157.47 12.872 156.59 13.304C155.726 13.736 154.782 14.2 153.758 14.696C152.734 15.176 151.734 15.672 150.758 16.184C151.574 16.792 152.414 17.36 153.278 17.888C154.158 18.4 154.966 18.88 155.702 19.328C156.438 19.76 157.03 20.144 157.478 20.48C157.942 20.8 158.174 21.064 158.174 21.272C158.174 21.48 158.094 21.672 157.934 21.848C157.79 22.008 157.558 22.088 157.238 22.088C157.11 22.088 156.83 21.992 156.398 21.8C155.966 21.608 155.438 21.344 154.814 21.008C154.19 20.656 153.51 20.264 152.774 19.832C152.054 19.4 151.334 18.952 150.614 18.488C149.894 18.008 149.23 17.536 148.622 17.072C148.414 16.928 148.27 16.784 148.19 16.64C148.11 16.48 148.07 16.336 148.07 16.208C148.07 15.808 148.326 15.456 148.838 15.152C149.558 14.72 150.326 14.288 151.142 13.856C151.974 13.424 152.798 13.016 153.614 12.632C154.43 12.248 155.198 11.904 155.918 11.6C156.638 11.296 157.246 11.064 157.742 10.904C158.254 10.728 158.606 10.64 158.798 10.64C159.278 10.64 159.518 10.856 159.518 11.288ZM170.847 22.208C170.847 23.584 170.527 24.56 169.887 25.136C169.263 25.712 168.223 26 166.767 26H161.823V9.2H166.479C167.919 9.2 169.007 9.496 169.743 10.088C170.479 10.664 170.847 11.616 170.847 12.944V22.208ZM168.759 12.728C168.759 12.2 168.599 11.784 168.279 11.48C167.959 11.16 167.535 11 167.007 11H163.911V24.2H166.983C167.591 24.2 168.039 24.064 168.327 23.792C168.615 23.504 168.759 23.056 168.759 22.448V12.728ZM178.192 26C176.784 26 175.752 25.704 175.096 25.112C174.44 24.504 174.112 23.52 174.112 22.16V17.84C174.112 16.464 174.408 15.48 175 14.888C175.592 14.296 176.576 14 177.952 14H179.08C180.216 14 181.072 14.32 181.648 14.96C182.24 15.584 182.536 16.504 182.536 17.72V20.84H176.152V22.64C176.152 23.136 176.304 23.52 176.608 23.792C176.912 24.064 177.36 24.2 177.952 24.2H181.768V26H178.192ZM180.544 17.24C180.544 16.824 180.408 16.48 180.136 16.208C179.864 15.936 179.52 15.8 179.104 15.8H177.712C177.136 15.8 176.728 15.936 176.488 16.208C176.264 16.464 176.152 16.848 176.152 17.36V19.04H180.544V17.24ZM185.393 14H187.601L190.409 24.344L193.145 14H195.281L191.825 26H188.873L185.393 14ZM202.194 26C200.786 26 199.754 25.704 199.098 25.112C198.442 24.504 198.114 23.52 198.114 22.16V17.84C198.114 16.464 198.41 15.48 199.002 14.888C199.594 14.296 200.578 14 201.954 14H203.082C204.218 14 205.074 14.32 205.65 14.96C206.242 15.584 206.538 16.504 206.538 17.72V20.84H200.154V22.64C200.154 23.136 200.306 23.52 200.61 23.792C200.914 24.064 201.362 24.2 201.954 24.2H205.77V26H202.194ZM204.546 17.24C204.546 16.824 204.41 16.48 204.138 16.208C203.866 15.936 203.522 15.8 203.106 15.8H201.714C201.138 15.8 200.73 15.936 200.49 16.208C200.266 16.464 200.154 16.848 200.154 17.36V19.04H204.546V17.24ZM215.107 26C214.563 26 214.083 25.808 213.667 25.424C213.267 25.04 213.067 24.432 213.067 23.6V11H209.539V9.2H215.107V23.48C215.107 23.736 215.171 23.92 215.299 24.032C215.427 24.144 215.643 24.2 215.947 24.2H219.139V26H215.107ZM230.804 22.16C230.804 23.504 230.468 24.48 229.796 25.088C229.14 25.696 228.116 26 226.724 26H225.932C224.54 26 223.508 25.696 222.836 25.088C222.18 24.48 221.852 23.504 221.852 22.16V17.84C221.852 16.496 222.18 15.52 222.836 14.912C223.508 14.304 224.54 14 225.932 14H226.724C228.116 14 229.14 14.304 229.796 14.912C230.468 15.52 230.804 16.496 230.804 17.84V22.16ZM228.764 17.36C228.764 16.864 228.612 16.48 228.308 16.208C228.004 15.936 227.556 15.8 226.964 15.8H225.692C225.1 15.8 224.652 15.936 224.348 16.208C224.044 16.48 223.892 16.864 223.892 17.36V22.64C223.892 23.136 224.044 23.52 224.348 23.792C224.652 24.064 225.1 24.2 225.692 24.2H226.964C227.556 24.2 228.004 24.064 228.308 23.792C228.612 23.52 228.764 23.136 228.764 22.64V17.36ZM235.869 14V14.576C236.365 14.192 237.005 14 237.789 14H238.653C240.061 14 241.093 14.304 241.749 14.912C242.405 15.504 242.733 16.48 242.733 17.84V22.16C242.733 23.504 242.397 24.48 241.725 25.088C241.069 25.696 240.045 26 238.653 26H235.989V30.08H233.949V14H235.869ZM237.549 15.8C237.021 15.8 236.629 15.944 236.373 16.232C236.117 16.504 235.989 16.8 235.989 17.12V24.2H238.893C239.485 24.2 239.933 24.064 240.237 23.792C240.541 23.52 240.693 23.136 240.693 22.64V17.36C240.693 16.864 240.541 16.48 240.237 16.208C239.933 15.936 239.485 15.8 238.893 15.8H237.549ZM250.198 26C248.79 26 247.758 25.704 247.102 25.112C246.446 24.504 246.118 23.52 246.118 22.16V17.84C246.118 16.464 246.414 15.48 247.006 14.888C247.598 14.296 248.582 14 249.958 14H251.086C252.222 14 253.078 14.32 253.654 14.96C254.246 15.584 254.542 16.504 254.542 17.72V20.84H248.158V22.64C248.158 23.136 248.31 23.52 248.614 23.792C248.918 24.064 249.366 24.2 249.958 24.2H253.774V26H250.198ZM252.55 17.24C252.55 16.824 252.414 16.48 252.142 16.208C251.87 15.936 251.526 15.8 251.11 15.8H249.718C249.142 15.8 248.734 15.936 248.494 16.208C248.27 16.464 248.158 16.848 248.158 17.36V19.04H252.55V17.24ZM264.863 25.448C264.335 25.816 263.695 26 262.943 26H261.959C260.551 26 259.519 25.704 258.863 25.112C258.207 24.504 257.879 23.52 257.879 22.16V17.84C257.879 16.496 258.207 15.52 258.863 14.912C259.535 14.304 260.567 14 261.959 14H264.743V9.2H266.783V26H264.863V25.448ZM263.183 24.2C263.711 24.2 264.103 24.064 264.359 23.792C264.615 23.504 264.743 23.2 264.743 22.88V15.8H261.719C261.127 15.8 260.679 15.936 260.375 16.208C260.071 16.48 259.919 16.864 259.919 17.36V22.64C259.919 23.136 260.071 23.52 260.375 23.792C260.679 24.064 261.127 24.2 261.719 24.2H263.183ZM268.439 29.984C268.183 29.984 267.983 29.88 267.839 29.672C267.695 29.464 267.623 29.12 267.623 28.64C267.623 28.48 267.751 28.088 268.007 27.464C268.263 26.84 268.615 26.048 269.063 25.088C269.527 24.112 270.047 23.024 270.623 21.824C271.215 20.624 271.839 19.384 272.495 18.104C273.151 16.808 273.815 15.52 274.487 14.24C275.159 12.96 275.807 11.752 276.431 10.616C277.055 9.464 277.623 8.456 278.135 7.592C278.359 7.256 278.551 7.048 278.711 6.968C278.887 6.872 279.095 6.824 279.335 6.824C279.575 6.824 279.759 6.928 279.887 7.136C280.031 7.328 280.103 7.56 280.103 7.832C280.103 7.976 279.951 8.384 279.647 9.056C279.343 9.712 278.927 10.576 278.399 11.648C277.871 12.704 277.255 13.912 276.551 15.272C275.863 16.616 275.119 18.056 274.319 19.592C273.535 21.112 272.735 22.672 271.919 24.272C271.103 25.856 270.311 27.424 269.543 28.976C269.367 29.344 269.199 29.6 269.039 29.744C268.879 29.904 268.679 29.984 268.439 29.984ZM292.057 17.048C291.321 17.528 290.529 18.008 289.681 18.488C288.833 18.968 287.977 19.424 287.113 19.856C286.265 20.288 285.473 20.672 284.737 21.008C284.001 21.344 283.377 21.608 282.865 21.8C282.353 21.992 282.017 22.088 281.857 22.088C281.553 22.088 281.345 22.04 281.233 21.944C281.121 21.848 281.065 21.696 281.065 21.488C281.065 21.232 281.337 20.912 281.881 20.528C282.441 20.128 283.161 19.688 284.041 19.208C284.937 18.728 285.905 18.224 286.945 17.696C287.985 17.152 289.001 16.6 289.993 16.04C289.177 15.496 288.345 14.984 287.497 14.504C286.665 14.024 285.889 13.592 285.169 13.208C284.465 12.808 283.897 12.464 283.465 12.176C283.033 11.872 282.817 11.624 282.817 11.432C282.817 10.904 283.113 10.64 283.705 10.64C283.849 10.64 284.217 10.776 284.809 11.048C285.417 11.304 286.145 11.656 286.993 12.104C287.841 12.536 288.713 13.016 289.609 13.544C290.521 14.072 291.353 14.6 292.105 15.128C292.329 15.288 292.489 15.448 292.585 15.608C292.681 15.768 292.729 15.92 292.729 16.064C292.729 16.416 292.505 16.744 292.057 17.048ZM311.374 26.288C310.446 26.288 309.622 26.104 308.902 25.736C308.198 25.368 307.638 24.848 307.222 24.176L306.958 26H304.678V8.72H307.222V15.944C307.606 15.384 308.134 14.888 308.806 14.456C309.478 14.024 310.342 13.808 311.398 13.808C312.55 13.808 313.566 14.08 314.446 14.624C315.326 15.168 316.014 15.912 316.51 16.856C317.022 17.8 317.278 18.872 317.278 20.072C317.278 21.272 317.022 22.344 316.51 23.288C316.014 24.216 315.326 24.952 314.446 25.496C313.566 26.024 312.542 26.288 311.374 26.288ZM310.942 24.08C312.03 24.08 312.926 23.712 313.63 22.976C314.334 22.224 314.686 21.248 314.686 20.048C314.686 19.264 314.526 18.568 314.206 17.96C313.886 17.352 313.446 16.88 312.886 16.544C312.326 16.192 311.678 16.016 310.942 16.016C309.854 16.016 308.958 16.392 308.254 17.144C307.566 17.896 307.222 18.864 307.222 20.048C307.222 21.248 307.566 22.224 308.254 22.976C308.958 23.712 309.854 24.08 310.942 24.08ZM319.454 31.28L322.31 25.016H321.614L316.91 14.096H319.67L323.318 22.904L327.134 14.096H329.822L322.142 31.28H319.454ZM336.136 26V9.2H339.136L344.824 20.384L350.488 9.2H353.488V26H350.944V13.592L345.808 23.6H343.84L338.68 13.616V26H336.136ZM361.414 26.288C360.246 26.288 359.206 26.032 358.294 25.52C357.398 24.992 356.694 24.264 356.182 23.336C355.67 22.408 355.414 21.328 355.414 20.096C355.414 18.848 355.662 17.752 356.158 16.808C356.67 15.864 357.374 15.128 358.27 14.6C359.182 14.072 360.238 13.808 361.438 13.808C362.606 13.808 363.622 14.072 364.486 14.6C365.35 15.112 366.022 15.8 366.502 16.664C366.982 17.528 367.222 18.48 367.222 19.52C367.222 19.68 367.214 19.856 367.198 20.048C367.198 20.224 367.19 20.424 367.174 20.648H357.91C357.99 21.8 358.366 22.68 359.038 23.288C359.726 23.88 360.518 24.176 361.414 24.176C362.134 24.176 362.734 24.016 363.214 23.696C363.71 23.36 364.078 22.912 364.318 22.352H366.862C366.542 23.472 365.902 24.408 364.942 25.16C363.998 25.912 362.822 26.288 361.414 26.288ZM361.414 15.896C360.566 15.896 359.814 16.152 359.158 16.664C358.502 17.16 358.102 17.912 357.958 18.92H364.678C364.63 17.992 364.302 17.256 363.694 16.712C363.086 16.168 362.326 15.896 361.414 15.896ZM369.91 26.144C369.43 26.144 369.03 25.992 368.71 25.688C368.406 25.368 368.254 24.992 368.254 24.56C368.254 24.112 368.406 23.736 368.71 23.432C369.03 23.112 369.43 22.952 369.91 22.952C370.39 22.952 370.782 23.112 371.086 23.432C371.39 23.736 371.542 24.112 371.542 24.56C371.542 24.992 371.39 25.368 371.086 25.688C370.782 25.992 370.39 26.144 369.91 26.144Z" fill="#FFFCF2"/>
</svg>
